#N canvas 850 253 558 396 10;
#X obj 124 30 inlet;
#X obj 124 275 outlet;
#X obj 124 136 random 1, f 12;
#X obj 48 68 r start;
#X msg 48 95 seed 12345;
#X obj 124 102 bng 15 250 50 0 empty empty empty 17 7 0 10 -262144
-1 -1;
#X obj 124 196 + 0;
#X obj 138 63 unpack 0 0;
#X obj 194 105 * 100;
#X obj 124 164 / 100;
#X text 44 7 add random number in range of \$2 to \$1;
#X obj 64 228 list prepend set;
#X obj 64 252 list trim;
#X obj 64 275 outlet;
#X connect 0 0 5 0;
#X connect 0 0 7 0;
#X connect 2 0 9 0;
#X connect 3 0 4 0;
#X connect 4 0 2 0;
#X connect 5 0 2 0;
#X connect 6 0 1 0;
#X connect 6 0 11 0;
#X connect 7 0 5 0;
#X connect 7 0 6 1;
#X connect 7 1 5 0;
#X connect 7 1 8 0;
#X connect 8 0 2 1;
#X connect 9 0 6 0;
#X connect 11 0 12 0;
#X connect 12 0 13 0;
