#N canvas 146 102 1687 872 10;
#X obj 159 434 inlet;
#X obj 1026 69 r msDuration;
#X obj 837 71 r msStart;
#X msg 322 459 0;
#X msg 367 459 1;
#X obj 322 483 tgl 30 0 empty empty empty 17 7 0 10 -262144 -1 -1 0
1;
#X text 406 459 current state (1 == playing);
#X text 200 434 inlet triggers new grain;
#X text 111 683 if current grain is active \, pass bang along to next
grain;
#X text 369 10 trigger new grain;
#X obj 1039 533 vline~;
#X text 1090 531 use vline to play from to in specified time;
#X obj 1095 269 nbx 5 14 -1e+037 1e+037 0 0 empty empty empty 0 -8
0 10 -262144 -1 -1 330.88 256;
#X text 895 126 start ms;
#X text 1056 131 duration ms;
#X text 834 201 start samples;
#X obj 1067 366 pack 0 0;
#X obj 1067 340 bng 15 250 50 0 empty empty empty 17 7 0 10 -262144
-1 -1;
#X msg 1039 503 \$1 0 0 \, \$2 \$3 0;
#X obj 1039 476 pack f f f;
#X obj 837 185 * 44.1;
#X obj 1197 476 delay 1;
#X obj 1197 503 bng 15 250 50 0 empty empty empty 17 7 0 10 -262144
-1 -1;
#X obj 1197 435 bng 15 250 50 0 empty empty empty 17 7 0 10 -262144
-1 -1;
#X text 1218 504 bang when finished;
#X obj 1036 670 *~;
#N canvas 0 50 684 600 ASR 0;
#X obj 160 77 inlet;
#X obj 238 77 inlet;
#X obj 345 77 inlet;
#X obj 115 77 inlet;
#X obj 162 160 nbx 5 14 -1e+037 1e+037 0 0 empty empty empty 0 -8 0
10 -262144 -1 -1 82.72 256;
#X obj 238 160 nbx 5 14 -1e+037 1e+037 0 0 empty empty empty 0 -8 0
10 -262144 -1 -1 330.88 256;
#X obj 341 160 nbx 5 14 -1e+037 1e+037 0 0 empty empty empty 0 -8 0
10 -262144 -1 -1 82.72 256;
#X text 174 134 attack;
#X text 359 135 release;
#X obj 177 247 delay 1000;
#X obj 252 189 bng 15 250 50 0 empty empty empty 17 7 0 10 -262144
-1 -1;
#X obj 177 270 pack 0 0;
#X obj 116 204 pack 1 0;
#X obj 116 160 bng 15 250 50 0 empty empty empty 17 7 0 10 -262144
-1 -1;
#X obj 237 215 -;
#X obj 116 309 line~;
#X obj 115 336 outlet~;
#X text 248 127 duration;
#X connect 0 0 4 0;
#X connect 1 0 5 0;
#X connect 2 0 6 0;
#X connect 3 0 13 0;
#X connect 4 0 12 1;
#X connect 5 0 14 0;
#X connect 6 0 11 1;
#X connect 6 0 14 1;
#X connect 6 0 10 0;
#X connect 9 0 11 0;
#X connect 10 0 14 0;
#X connect 11 0 15 0;
#X connect 12 0 15 0;
#X connect 13 0 12 0;
#X connect 13 0 9 0;
#X connect 14 0 9 1;
#X connect 15 0 16 0;
#X restore 755 560 pd ASR;
#X f 17;
#X floatatom 788 537 5 0 0 0 - - -;
#X floatatom 821 537 5 0 0 0 - - -;
#X floatatom 854 537 5 0 0 0 - - -;
#X msg 788 503 300;
#X obj 788 479 r start;
#X text 865 559 grain envelope;
#X obj 322 717 outlet;
#X obj 211 543 expr $f1 == 1 \; $f1 ==0;
#X obj 211 582 tgl 15 0 empty empty empty 17 7 0 10 -262144 -1 -1 0
1;
#X obj 292 585 tgl 15 0 empty empty empty 17 7 0 10 -262144 -1 -1 1
1;
#X obj 178 627 spigot;
#X obj 259 621 spigot;
#X obj 178 658 bng 15 250 50 0 empty empty empty 17 7 0 10 -262144
-1 -1;
#X obj 259 656 bng 15 250 50 0 empty empty empty 17 7 0 10 -262144
-1 -1;
#X obj 159 496 t b b b;
#X obj 179 713 outlet;
#X msg 1026 132 291.51;
#X msg 837 126 74253.7;
#X obj 211 470 r start;
#X msg 211 493 0;
#X obj 1067 395 expr $f1*44.100 + $f2*44.100;
#X obj 854 503 / 4;
#X obj 1095 240 / 1;
#X obj 1095 214 bng 15 250 50 0 empty empty empty 17 7 0 10 -262144
-1 -1;
#X obj 1233 62 r pitch;
#X msg 1233 119 1;
#X obj 1038 564 tabread4~ bufferL;
#X obj 1161 565 tabread4~ bufferR;
#X obj 1160 669 *~;
#X obj 1037 703 *~;
#X obj 1161 702 *~;
#X obj 1209 622 r volume;
#X obj 1037 744 dac~, f 21;
#X obj 371 26 t b b b b b, f 139;
#X text 1037 763 why are multiple DACs faster than having outlets and
mixing the grains together before DAC- ing?;
#X text 1152 268 modified duration for pitch shifting;
#X obj 837 101 addRandomRange;
#X obj 1026 100 addRandomRange;
#X obj 1233 86 addRandomRange;
#X connect 0 0 41 0;
#X connect 1 0 64 0;
#X connect 2 0 63 0;
#X connect 3 0 5 0;
#X connect 4 0 5 0;
#X connect 5 0 34 0;
#X connect 5 0 33 0;
#X connect 10 0 53 0;
#X connect 10 0 54 0;
#X connect 12 0 17 0;
#X connect 12 0 19 2;
#X connect 12 0 21 1;
#X connect 16 0 47 0;
#X connect 17 0 16 0;
#X connect 18 0 10 0;
#X connect 19 0 18 0;
#X connect 19 0 23 0;
#X connect 20 0 19 0;
#X connect 21 0 22 0;
#X connect 22 0 3 0;
#X connect 23 0 21 0;
#X connect 25 0 56 0;
#X connect 26 0 25 1;
#X connect 26 0 55 1;
#X connect 27 0 26 1;
#X connect 28 0 26 2;
#X connect 29 0 26 3;
#X connect 30 0 29 0;
#X connect 30 0 27 0;
#X connect 31 0 30 0;
#X connect 34 0 35 0;
#X connect 34 1 36 0;
#X connect 35 0 37 1;
#X connect 36 0 38 1;
#X connect 37 0 39 0;
#X connect 38 0 40 0;
#X connect 39 0 42 0;
#X connect 40 0 60 0;
#X connect 41 0 38 0;
#X connect 41 1 37 0;
#X connect 43 0 28 0;
#X connect 43 0 48 0;
#X connect 43 0 50 0;
#X connect 43 0 49 0;
#X connect 43 0 16 1;
#X connect 44 0 16 0;
#X connect 44 0 20 0;
#X connect 45 0 46 0;
#X connect 46 0 34 0;
#X connect 47 0 19 1;
#X connect 48 0 29 0;
#X connect 48 0 27 0;
#X connect 49 0 12 0;
#X connect 50 0 49 0;
#X connect 51 0 65 0;
#X connect 52 0 50 0;
#X connect 52 0 49 1;
#X connect 53 0 25 0;
#X connect 54 0 55 0;
#X connect 55 0 57 0;
#X connect 56 0 59 0;
#X connect 57 0 59 1;
#X connect 58 0 57 1;
#X connect 58 0 56 1;
#X connect 60 0 4 0;
#X connect 60 1 26 0;
#X connect 60 2 44 0;
#X connect 60 2 63 0;
#X connect 60 3 43 0;
#X connect 60 3 64 0;
#X connect 60 4 52 0;
#X connect 60 4 65 0;
#X connect 63 0 44 0;
#X connect 64 0 43 0;
#X connect 65 0 52 0;
