#N canvas 183 19 1687 872 10;
#X obj 159 434 inlet;
#X obj 1076 69 r msDuration;
#X obj 944 71 r msStart;
#X obj 408 63 bng 15 250 50 0 empty empty empty 17 7 0 10 -262144 -1
-1;
#X msg 322 459 0;
#X msg 367 459 1;
#X obj 322 483 tgl 30 0 empty empty empty 17 7 0 10 -262144 -1 -1 1
1;
#N canvas 532 365 1137 630 randomize 0;
#X obj 103 28 inlet;
#X obj 124 372 outlet;
#X obj 125 190 random 1;
#X obj 150 128 r start;
#X msg 150 155 seed 12345;
#X obj 92 152 bng 15 250 50 0 empty empty empty 17 7 0 10 -262144 -1
-1;
#X floatatom 125 217 5 0 0 0 - - -;
#X obj 125 243 + 0;
#X floatatom 125 270 5 0 0 0 - - -;
#X obj 137 71 unpack 0 0;
#X connect 0 0 5 0;
#X connect 0 0 9 0;
#X connect 2 0 6 0;
#X connect 3 0 4 0;
#X connect 4 0 2 0;
#X connect 5 0 2 0;
#X connect 6 0 7 0;
#X connect 7 0 8 0;
#X connect 8 0 1 0;
#X connect 9 0 5 0;
#X connect 9 0 7 1;
#X connect 9 1 5 0;
#X connect 9 1 2 1;
#X restore 1076 100 pd randomize;
#N canvas 532 365 1137 630 randomize 0;
#X obj 103 28 inlet;
#X obj 124 372 outlet;
#X obj 125 190 random 1;
#X obj 150 128 r start;
#X msg 150 155 seed 12345;
#X obj 92 152 bng 15 250 50 0 empty empty empty 17 7 0 10 -262144 -1
-1;
#X floatatom 125 217 5 0 0 0 - - -;
#X obj 125 243 + 0;
#X floatatom 125 270 5 0 0 0 - - -;
#X obj 137 71 unpack 0 0;
#X connect 0 0 5 0;
#X connect 0 0 9 0;
#X connect 2 0 6 0;
#X connect 3 0 4 0;
#X connect 4 0 2 0;
#X connect 5 0 2 0;
#X connect 6 0 7 0;
#X connect 7 0 8 0;
#X connect 8 0 1 0;
#X connect 9 0 5 0;
#X connect 9 0 7 1;
#X connect 9 1 5 0;
#X connect 9 1 2 1;
#X restore 944 101 pd randomize;
#X text 406 459 current state (1 == playing);
#X text 200 434 inlet triggers new grain;
#X text 105 679 if current grain is active \, pass bang along to next
grain;
#X text 432 51 trigger new grain;
#X obj 1039 533 vline~;
#X text 1083 531 use vline to play from to in specified time;
#X obj 949 296 nbx 5 14 -1e+037 1e+037 0 0 empty empty empty 0 -8 0
10 -262144 -1 -1 26446.5 256;
#X obj 1185 261 nbx 5 14 -1e+037 1e+037 0 0 empty empty empty 0 -8
0 10 -262144 -1 -1 606 256;
#X text 1007 293 start ms;
#X text 1246 260 duration ms;
#X text 934 341 start samples;
#X obj 1067 366 pack 0 0;
#X obj 1067 340 bng 15 250 50 0 empty empty empty 17 7 0 10 -262144
-1 -1;
#X msg 1039 503 \$1 0 0 \, \$2 \$3 0;
#X obj 1039 476 pack f f f;
#X obj 949 325 * 44.1;
#X obj 1320 376 delay 1;
#X obj 1320 403 bng 15 250 50 0 empty empty empty 17 7 0 10 -262144
-1 -1;
#X obj 1320 335 bng 15 250 50 0 empty empty empty 17 7 0 10 -262144
-1 -1;
#X text 1341 404 bang when finished;
#X obj 1036 784 dac~;
#X obj 1036 670 *~;
#N canvas 0 50 684 600 ASR 0;
#X obj 160 77 inlet;
#X obj 238 77 inlet;
#X obj 345 77 inlet;
#X obj 115 77 inlet;
#X obj 162 160 nbx 5 14 -1e+037 1e+037 0 0 empty empty empty 0 -8 0
10 -262144 -1 -1 151.5 256;
#X obj 238 160 nbx 5 14 -1e+037 1e+037 0 0 empty empty empty 0 -8 0
10 -262144 -1 -1 606 256;
#X obj 341 160 nbx 5 14 -1e+037 1e+037 0 0 empty empty empty 0 -8 0
10 -262144 -1 -1 151.5 256;
#X text 174 134 attack;
#X text 359 135 release;
#X obj 177 247 delay 1000;
#X obj 252 189 bng 15 250 50 0 empty empty empty 17 7 0 10 -262144
-1 -1;
#X obj 177 270 pack 0 0;
#X obj 116 204 pack 1 0;
#X obj 116 160 bng 15 250 50 0 empty empty empty 17 7 0 10 -262144
-1 -1;
#X obj 237 215 -;
#X obj 116 309 line~;
#X obj 115 336 outlet~;
#X text 248 127 duration;
#X connect 0 0 4 0;
#X connect 1 0 5 0;
#X connect 2 0 6 0;
#X connect 3 0 13 0;
#X connect 4 0 12 1;
#X connect 5 0 14 0;
#X connect 6 0 11 1;
#X connect 6 0 14 1;
#X connect 6 0 10 0;
#X connect 9 0 11 0;
#X connect 10 0 14 0;
#X connect 11 0 15 0;
#X connect 12 0 15 0;
#X connect 13 0 12 0;
#X connect 13 0 9 0;
#X connect 14 0 9 1;
#X connect 15 0 16 0;
#X restore 873 605 pd ASR;
#X floatatom 885 582 5 0 0 0 - - -;
#X floatatom 918 582 5 0 0 0 - - -;
#X floatatom 951 582 5 0 0 0 - - -;
#X msg 884 547 300;
#X obj 884 524 r start;
#X text 927 603 grain envelope;
#X obj 322 522 outlet;
#X obj 211 543 expr $f1 == 1 \; $f1 ==0;
#X obj 211 582 tgl 15 0 empty empty empty 17 7 0 10 -262144 -1 -1 1
1;
#X obj 292 585 tgl 15 0 empty empty empty 17 7 0 10 -262144 -1 -1 0
1;
#X obj 178 627 spigot;
#X obj 259 621 spigot;
#X obj 178 658 bng 15 250 50 0 empty empty empty 17 7 0 10 -262144
-1 -1;
#X obj 259 656 bng 15 250 50 0 empty empty empty 17 7 0 10 -262144
-1 -1;
#X obj 159 496 t b b b;
#X obj 178 707 outlet;
#X msg 1080 172 620;
#X obj 1076 123 list prepend set;
#X obj 1078 147 list trim;
#X msg 949 176 26446.5;
#X obj 945 127 list prepend set;
#X obj 947 151 list trim;
#X obj 211 470 r start;
#X msg 211 493 0;
#X text 798 629 this could be more elegant...^^;
#X obj 1067 395 expr $f1*44.100 + $f2*44.100;
#X obj 956 539 / 4;
#X obj 1185 232 / 1;
#X floatatom 1232 185 5 0 0 0 - - -;
#X obj 1185 206 bng 15 250 50 0 empty empty empty 17 7 0 10 -262144
-1 -1;
#N canvas 1975 251 411 645 randomize 0;
#X obj 103 28 inlet;
#X obj 122 443 outlet;
#X obj 123 234 random 1;
#X obj 150 128 r start;
#X msg 150 155 seed 12345;
#X obj 92 152 bng 15 250 50 0 empty empty empty 17 7 0 10 -262144 -1
-1;
#X floatatom 123 288 5 0 0 0 - - -;
#X obj 123 314 + 0;
#X floatatom 123 341 5 0 0 0 - - -;
#X obj 137 71 unpack 0 0;
#X obj 168 203 * 100;
#X obj 123 262 / 100;
#X connect 0 0 5 0;
#X connect 0 0 9 0;
#X connect 2 0 11 0;
#X connect 3 0 4 0;
#X connect 4 0 2 0;
#X connect 5 0 2 0;
#X connect 6 0 7 0;
#X connect 7 0 8 0;
#X connect 8 0 1 0;
#X connect 9 0 5 0;
#X connect 9 0 7 1;
#X connect 9 1 5 0;
#X connect 9 1 10 0;
#X connect 10 0 2 1;
#X connect 11 0 6 0;
#X restore 1233 86 pd randomize;
#X obj 1233 110 list prepend set;
#X obj 1233 134 list trim;
#X obj 1233 62 r pitch;
#X msg 1232 159 1;
#X obj 1038 564 tabread4~ bufferL;
#X obj 1161 565 tabread4~ bufferR;
#X obj 1160 669 *~;
#X obj 1037 703 *~;
#X obj 1161 702 *~;
#X obj 1209 622 r volume;
#X connect 0 0 46 0;
#X connect 1 0 7 0;
#X connect 2 0 8 0;
#X connect 3 0 5 0;
#X connect 3 0 31 0;
#X connect 3 0 51 0;
#X connect 3 0 48 0;
#X connect 3 0 8 0;
#X connect 3 0 7 0;
#X connect 3 0 62 0;
#X connect 3 0 66 0;
#X connect 4 0 6 0;
#X connect 5 0 6 0;
#X connect 6 0 38 0;
#X connect 6 0 39 0;
#X connect 7 0 49 0;
#X connect 8 0 52 0;
#X connect 13 0 67 0;
#X connect 13 0 68 0;
#X connect 15 0 20 0;
#X connect 15 0 24 0;
#X connect 16 0 21 0;
#X connect 16 0 23 2;
#X connect 16 0 25 1;
#X connect 20 0 57 0;
#X connect 21 0 20 0;
#X connect 22 0 13 0;
#X connect 23 0 22 0;
#X connect 23 0 27 0;
#X connect 24 0 23 0;
#X connect 25 0 26 0;
#X connect 26 0 4 0;
#X connect 27 0 25 0;
#X connect 30 0 70 0;
#X connect 31 0 30 1;
#X connect 31 0 69 1;
#X connect 32 0 31 1;
#X connect 33 0 31 2;
#X connect 34 0 31 3;
#X connect 35 0 34 0;
#X connect 35 0 32 0;
#X connect 36 0 35 0;
#X connect 39 0 40 0;
#X connect 39 1 41 0;
#X connect 40 0 42 1;
#X connect 41 0 43 1;
#X connect 42 0 44 0;
#X connect 43 0 45 0;
#X connect 44 0 47 0;
#X connect 45 0 3 0;
#X connect 46 0 43 0;
#X connect 46 1 42 0;
#X connect 48 0 33 0;
#X connect 48 0 58 0;
#X connect 48 0 61 0;
#X connect 48 0 59 0;
#X connect 48 0 20 1;
#X connect 49 0 50 0;
#X connect 50 0 48 0;
#X connect 51 0 15 0;
#X connect 52 0 53 0;
#X connect 53 0 51 0;
#X connect 54 0 55 0;
#X connect 55 0 39 0;
#X connect 57 0 23 1;
#X connect 58 0 34 0;
#X connect 58 0 32 0;
#X connect 59 0 16 0;
#X connect 60 0 59 1;
#X connect 60 0 61 0;
#X connect 61 0 59 0;
#X connect 62 0 63 0;
#X connect 63 0 64 0;
#X connect 64 0 66 0;
#X connect 65 0 62 0;
#X connect 66 0 60 0;
#X connect 67 0 30 0;
#X connect 68 0 69 0;
#X connect 69 0 71 0;
#X connect 70 0 29 0;
#X connect 71 0 29 1;
#X connect 72 0 71 1;
#X connect 72 0 70 1;
